<svg xmlns="http://www.w3.org/2000/svg" viewBox="0 0 760 270" role="img" aria-label="Il loop agentico: contesto, azione, verifica, ripeti">
  <style>
    .box{fill:#FFFCF7;stroke:#14110D;stroke-width:3}
    .sh{fill:#14110D}
    .lbl{font-family:'JetBrains Mono',ui-monospace,monospace;font-size:19px;font-weight:700;fill:#14110D}
    .small{font-family:'JetBrains Mono',ui-monospace,monospace;font-size:13px;font-weight:700;fill:#0E8A57}
    .arr{stroke:#14110D;stroke-width:3;fill:none}
  </style>
  <defs>
    <marker id="ar" markerWidth="11" markerHeight="11" refX="7" refY="3.2" orient="auto">
      <path d="M0,0 L7.5,3.2 L0,6.4 Z" fill="#14110D"/>
    </marker>
  </defs>
  <g>
    <rect class="sh" x="36" y="76" width="180" height="80" rx="10"/>
    <rect class="box" x="30" y="70" width="180" height="80" rx="10"/>
    <text class="lbl" x="120" y="117" text-anchor="middle">CONTESTO</text>
  </g>
  <g>
    <rect class="sh" x="296" y="76" width="180" height="80" rx="10"/>
    <rect class="box" x="290" y="70" width="180" height="80" rx="10"/>
    <text class="lbl" x="380" y="117" text-anchor="middle">AZIONE</text>
  </g>
  <g>
    <rect class="sh" x="556" y="76" width="180" height="80" rx="10"/>
    <rect class="box" x="550" y="70" width="180" height="80" rx="10"/>
    <text class="lbl" x="640" y="117" text-anchor="middle">VERIFICA</text>
  </g>
  <path class="arr" d="M214 110 L284 110" marker-end="url(#ar)"/>
  <path class="arr" d="M474 110 L544 110" marker-end="url(#ar)"/>
  <path class="arr" d="M640 154 L640 212 L120 212 L120 154" marker-end="url(#ar)"/>
  <text class="small" x="380" y="206" text-anchor="middle">ripeti finché il compito è fatto</text>
</svg>
